# xmcd
#
# Track frame offsets: 
#        150
#        17076
#        36330
#        53851
#        73658
#        89060
#        104432
#        120124
#        136990
#        153119
#        169093
#        185787
#
# Disc length: 2656 seconds
#
# Revision: 0
# Processed by: cddbd v1.5.2PL0 Copyright (c) Steve Scherf et al.
# Submitted via: ExactAudioCopyFreeDBPlugin 1.0
#
DISCID=a10a5e0c
DTITLE=Various Artist - Moments 2011
DYEAR=2011
DGENRE=Blues
TTITLE0=Challenge - This Moment
TTITLE1=Monica Palao - Angel's Lullaby
TTITLE2=Kai Schwerdtfeger - Stay
TTITLE3=La Vie - Pictures
TTITLE4=Payakootha - If The Answer Is Love
TTITLE5=Ashley Hicklin - Keep Hope Alive
TTITLE6=Tilj Corremans - Always One
TTITLE7=Chris Madin - What I Wouldn't Give
TTITLE8=Joe's Garage - Walking The Places
TTITLE9=Vasco - She's In My Heart
TTITLE10=Lucy Underhill - Stare In Wonder
TTITLE11=Chris Madin - That Moment Is Now
EXTD=
EXTT0=
EXTT1=
EXTT2=
EXTT3=
EXTT4=
EXTT5=
EXTT6=
EXTT7=
EXTT8=
EXTT9=
EXTT10=
EXTT11=
PLAYORDER=
